<svg width="64" height="64" viewBox="0 0 64 64" fill="none" xmlns="http://www.w3.org/2000/svg">
  <rect width="64" height="64" rx="18" fill="#0F172A"/>
  <rect x="5" y="5" width="54" height="54" rx="15" fill="url(#paint0_linear)"/>
  <path d="M43 11L22 53" stroke="#E0F2FE" stroke-width="3.2" stroke-linecap="round"/>
  <path d="M36.5 23.2C40.1451 23.2 43.1 20.2451 43.1 16.6C43.1 12.9549 40.1451 10 36.5 10C32.8549 10 29.9 12.9549 29.9 16.6C29.9 20.2451 32.8549 23.2 36.5 23.2Z" fill="#F8FAFC"/>
  <path d="M35.6 22.7L30.4 31.8L25.2 29.5L18.6 39.3" stroke="#F8FAFC" stroke-width="3.8" stroke-linecap="round" stroke-linejoin="round"/>
  <path d="M30.4 31.8L35.1 40.5L30 50.6" stroke="#F8FAFC" stroke-width="3.8" stroke-linecap="round" stroke-linejoin="round"/>
  <path d="M35.1 40.5L45.4 43.6" stroke="#F8FAFC" stroke-width="3.8" stroke-linecap="round"/>
  <defs>
    <linearGradient id="paint0_linear" x1="10" y1="8" x2="53" y2="56" gradientUnits="userSpaceOnUse">
      <stop stop-color="#1D4ED8"/>
      <stop offset="0.48" stop-color="#0EA5E9"/>
      <stop offset="1" stop-color="#14B8A6"/>
    </linearGradient>
  </defs>
</svg>
